<svg xmlns="http://www.w3.org/2000/svg" data-name="Layer 1" viewBox="0 0 48 48"><path fill="#232323" d="M34.47 45H7.53a5 5 0 0 1-4.963-5.625l3-24A5.007 5.007 0 0 1 10.53 11h13.839a1 1 0 0 1 0 2H10.53a3 3 0 0 0-2.978 2.624l-3 24A3.005 3.005 0 0 0 7.53 43h26.94a.99.99 0 0 1 1.157.793 1.017 1.017 0 0 1-.8 1.179 1.989 1.989 0 0 1-.357.028zm2.299-17.83a1 1 0 0 1-.992-.877l-1.329-10.669A3 3 0 0 0 31.47 13h-3.318a1 1 0 0 1 0-2h3.318a5.007 5.007 0 0 1 4.963 4.376l1.329 10.67a1 1 0 0 1-.868 1.116 1.063 1.063 0 0 1-.125.008z"/><path fill="#232323" d="M28 18a1 1 0 0 1-1-1v-6a6 6 0 0 0-12 0v6a1 1 0 0 1-2 0v-6a8 8 0 0 1 16 0v6a1 1 0 0 1-1 1Z"/><path fill="#7fbde7" d="M35 45a10 10 0 1 1 10-10 10.011 10.011 0 0 1-10 10Zm0-18a8 8 0 1 0 8 8 8.009 8.009 0 0 0-8-8Z"/><path fill="#7fbde7" d="M35 39a1 1 0 0 1-1-1v-6a1 1 0 0 1 2 0v6a1 1 0 0 1-1 1Z"/><path fill="#7fbde7" d="M38 36h-6a1 1 0 0 1 0-2h6a1 1 0 0 1 0 2Z"/></svg>