<?xml version="1.0" ?><!DOCTYPE svg  PUBLIC '-//W3C//DTD SVG 1.1//EN'  'http://www.w3.org/Graphics/SVG/1.1/DTD/svg11.dtd'><svg enable-background="new 0 0 87 56" height="56px" id="Layer_1" version="1.1" viewBox="0 0 87 56" width="87px" xml:space="preserve" xmlns="http://www.w3.org/2000/svg" xmlns:xlink="http://www.w3.org/1999/xlink"><g><path d="M86,52.636C86,53.941,84.84,55,83.407,55H3.593C2.161,55,1,53.941,1,52.636V3.365C1,2.059,2.161,1,3.593,1   h79.814C84.84,1,86,2.059,86,3.365V52.636z" fill="#F1F2F2"/><g><path d="M53.091,14.948c0,0,2.358,1.64,0,1.947c0,0-8.816,1.025-15.377,7.177c0,0-9.842,8.609-13.532,18.041    c0,0-1.229,0-0.818-1.845c0.409-1.846,2.869-9.943,13.837-19.888C37.2,20.381,47.761,10.746,53.091,14.948 M25.105,16.178    c0.102,2.256,2.05,10.866,2.05,10.866c0.717,1.743,1.333,0,1.333,0c2.357-7.073-2.46-11.172-2.46-11.172    C24.797,15.154,25.105,16.178,25.105,16.178" fill="#FF4800"/><path d="M6.064,22.073c0.876-0.224,2.24-0.347,3.563-0.347c1.242,0,2.647,0.204,3.645,0.918    c0.937,0.611,1.486,1.587,1.486,2.91c0,1.711-0.794,3.034-1.854,3.848c-1.119,0.876-2.728,1.283-4.397,1.283    c-0.488,0-0.896-0.061-1.201-0.081L6.37,35.531H3.5L6.064,22.073z M7.756,28.202c0.325,0.061,0.631,0.102,1.139,0.102    c1.751,0,2.912-1.119,2.912-2.505c0-1.303-0.937-1.73-2.077-1.73c-0.549,0-0.956,0.041-1.202,0.082L7.756,28.202z" fill="#626363"/><path d="M20.563,35.531c0.021-0.569,0.082-1.263,0.122-1.974h-0.04c-0.938,1.648-2.22,2.198-3.381,2.198    c-1.791,0-3.013-1.385-3.013-3.463c0-3.359,2.24-6.941,7.127-6.941c1.201,0,2.463,0.223,3.277,0.489l-0.999,5.212    c-0.243,1.282-0.446,3.236-0.406,4.479H20.563z M21.357,27.652c-0.224-0.041-0.468-0.081-0.773-0.081    c-1.893,0-3.278,2.32-3.278,4.174c0,0.978,0.387,1.647,1.202,1.647c0.876,0,1.994-0.996,2.443-3.439L21.357,27.652z" fill="#626363"/><path d="M39.067,35.756c-2.544,0-4.234-1.65-4.234-4.114c0-3.439,2.403-6.29,5.944-6.29    c2.688,0,4.234,1.833,4.234,4.112c0,3.624-2.503,6.292-5.924,6.292H39.067z M39.454,33.516c1.588,0,2.504-2.341,2.504-4.03    c0-0.937-0.406-1.895-1.567-1.895c-1.688,0-2.545,2.442-2.545,3.989c0,1.162,0.59,1.936,1.589,1.936H39.454z" fill="#626363"/><path d="M45.409,35.531l1.262-6.719c0.245-1.263,0.408-2.342,0.53-3.238h2.586l-0.183,1.649h0.039    c0.938-1.281,2.18-1.872,3.482-1.872c1.629,0,2.565,0.997,2.565,2.729c0,0.447-0.081,1.181-0.163,1.668l-1.1,5.783h-2.933    l1.039-5.518c0.061-0.346,0.103-0.733,0.103-1.1c0-0.712-0.244-1.201-0.998-1.201c-0.957,0-2.056,1.201-2.483,3.4l-0.815,4.418    H45.409z" fill="#626363"/><path d="M64.754,34.962c-1.16,0.589-2.605,0.794-3.705,0.794c-2.851,0-4.316-1.609-4.316-4.215    c0-3.034,2.198-6.189,5.804-6.189c2.016,0,3.46,1.141,3.46,2.992c0,2.525-2.464,3.441-6.453,3.34c0,0.285,0.101,0.732,0.306,1.018    c0.386,0.509,1.059,0.773,1.913,0.773c1.079,0,1.996-0.245,2.79-0.63L64.754,34.962z M63.247,28.324    c0-0.488-0.406-0.836-1.078-0.836c-1.364,0-2.138,1.14-2.341,2.057c2.28,0.02,3.419-0.284,3.419-1.201V28.324z" fill="#626363"/><path d="M74.413,34.962c-1.161,0.589-2.606,0.794-3.706,0.794c-2.851,0-4.316-1.609-4.316-4.215    c0-3.034,2.199-6.189,5.804-6.189c2.015,0,3.461,1.141,3.461,2.992c0,2.525-2.465,3.441-6.455,3.34    c0,0.285,0.102,0.732,0.306,1.018c0.386,0.509,1.058,0.773,1.914,0.773c1.079,0,1.995-0.245,2.789-0.63L74.413,34.962z     M72.905,28.324c0-0.488-0.406-0.836-1.078-0.836c-1.364,0-2.138,1.14-2.341,2.057c2.279,0.02,3.419-0.284,3.419-1.201V28.324z" fill="#626363"/><path d="M75.723,35.531l1.14-5.925c0.266-1.507,0.408-3.176,0.51-4.032h2.524    c-0.041,0.673-0.102,1.345-0.183,2.058h0.081c0.691-1.345,1.791-2.28,3.155-2.28c0.204,0,0.387,0.02,0.55,0.02l-0.57,2.872    c-0.121-0.022-0.285-0.022-0.447-0.022c-1.853,0-2.749,1.65-3.115,3.605l-0.692,3.705H75.723z" fill="#626363"/></g></g></svg>